<?xml version="1.0" encoding="UTF-8"?>
<!DOCTYPE svg PUBLIC "-//W3C//DTD SVG 1.1//EN" "http://www.w3.org/Graphics/SVG/1.1/DTD/svg11.dtd">
<svg xmlns="http://www.w3.org/2000/svg" version="1.1" width="57px" height="56px" style="shape-rendering:geometricPrecision; text-rendering:geometricPrecision; image-rendering:optimizeQuality; fill-rule:evenodd; clip-rule:evenodd" xmlns:xlink="http://www.w3.org/1999/xlink">
<g><path style="opacity:0.948" fill="#102075" d="M 6.5,8.5 C 20.8372,8.33342 35.1705,8.50009 49.5,9C 50,9.5 50.5,10 51,10.5C 51.6667,21.5 51.6667,32.5 51,43.5C 50.0975,44.7014 48.9308,45.5348 47.5,46C 33.7389,46.9633 20.0722,46.63 6.5,45C 6,44.5 5.5,44 5,43.5C 4.33333,32.8333 4.33333,22.1667 5,11.5C 5.51328,10.4734 6.01328,9.47344 6.5,8.5 Z M 10.5,15.5 C 16.6852,18.1779 22.5185,21.5113 28,25.5C 33.3685,21.968 38.8685,18.6347 44.5,15.5C 45.3081,15.8076 45.9747,16.3076 46.5,17C 40.5687,21.2155 34.402,25.0488 28,28.5C 23.1767,25.6828 18.3434,22.8494 13.5,20C 11.5614,19.0922 10.5614,17.5922 10.5,15.5 Z"/></g>
</svg>
