<?xml version="1.0" encoding="UTF-8"?>
<!DOCTYPE svg PUBLIC "-//W3C//DTD SVG 1.1//EN" "http://www.w3.org/Graphics/SVG/1.1/DTD/svg11.dtd">
<svg xmlns="http://www.w3.org/2000/svg" version="1.1" width="60px" height="60px" style="shape-rendering:geometricPrecision; text-rendering:geometricPrecision; image-rendering:optimizeQuality; fill-rule:evenodd; clip-rule:evenodd" xmlns:xlink="http://www.w3.org/1999/xlink">
<g><path style="opacity:0.976" fill="#102075" d="M 21.5,-0.5 C 26.8333,-0.5 32.1667,-0.5 37.5,-0.5C 42.065,1.4539 46.3983,3.9539 50.5,7C 54.4151,11.3435 57.4151,16.1768 59.5,21.5C 59.5,26.8333 59.5,32.1667 59.5,37.5C 55.8983,48.1012 48.8983,55.4345 38.5,59.5C 37.1667,59.5 35.8333,59.5 34.5,59.5C 34.5,52.1667 34.5,44.8333 34.5,37.5C 40.5021,38.1956 42.8355,35.5289 41.5,29.5C 39.1667,29.5 36.8333,29.5 34.5,29.5C 34.3354,26.4816 34.502,23.4816 35,20.5C 37.3806,19.565 39.8806,19.2317 42.5,19.5C 43.5104,12.3281 40.5104,9.82809 33.5,12C 29.9798,12.504 27.4798,14.3374 26,17.5C 24.8436,21.4183 24.3436,25.4183 24.5,29.5C 22.1667,29.5 19.8333,29.5 17.5,29.5C 17.5,32.1667 17.5,34.8333 17.5,37.5C 19.8333,37.5 22.1667,37.5 24.5,37.5C 24.5,44.8333 24.5,52.1667 24.5,59.5C 23.1667,59.5 21.8333,59.5 20.5,59.5C 10.1017,55.4345 3.10172,48.1012 -0.5,37.5C -0.5,32.5 -0.5,27.5 -0.5,22.5C 2.72774,10.9383 10.0611,3.27162 21.5,-0.5 Z"/></g>
</svg>
