<?xml version="1.0" encoding="UTF-8"?>
<!DOCTYPE svg PUBLIC "-//W3C//DTD SVG 1.1//EN" "http://www.w3.org/Graphics/SVG/1.1/DTD/svg11.dtd">
<svg xmlns="http://www.w3.org/2000/svg" version="1.1" width="60px" height="60px" style="shape-rendering:geometricPrecision; text-rendering:geometricPrecision; image-rendering:optimizeQuality; fill-rule:evenodd; clip-rule:evenodd" xmlns:xlink="http://www.w3.org/1999/xlink">
<g><path style="opacity:0.946" fill="#102075" d="M 15.5,6.5 C 20.7111,6.01584 25.3778,7.34917 29.5,10.5C 39.8212,3.80909 47.9879,5.80909 54,16.5C 54.4986,20.1516 54.6653,23.8183 54.5,27.5C 48.7945,27.8288 43.1278,27.4954 37.5,26.5C 36.3695,22.3688 33.7029,20.7021 29.5,21.5C 29.0242,25.095 27.8575,28.4284 26,31.5C 25.044,30.4214 24.2106,29.2547 23.5,28C 17.1754,27.5005 10.8421,27.3338 4.5,27.5C 2.70824,17.4089 6.3749,10.4089 15.5,6.5 Z"/></g>
<g><path style="opacity:0.906" fill="#102075" d="M 32.5,27.5 C 33.8366,28.3149 34.8366,29.4815 35.5,31C 40.8642,31.1705 46.1975,31.6705 51.5,32.5C 44.5,40.1667 37.1667,47.5 29.5,54.5C 21.8333,47.5 14.5,40.1667 7.5,32.5C 12.1667,31.1667 16.8333,31.1667 21.5,32.5C 22.6305,36.6312 25.2971,38.2979 29.5,37.5C 30.1009,34.0321 31.1009,30.6988 32.5,27.5 Z"/></g>
</svg>
