<?xml version="1.0" encoding="UTF-8"?>
<!DOCTYPE svg PUBLIC "-//W3C//DTD SVG 1.1//EN" "http://www.w3.org/Graphics/SVG/1.1/DTD/svg11.dtd">
<svg xmlns="http://www.w3.org/2000/svg" version="1.1" width="60px" height="60px" style="shape-rendering:geometricPrecision; text-rendering:geometricPrecision; image-rendering:optimizeQuality; fill-rule:evenodd; clip-rule:evenodd" xmlns:xlink="http://www.w3.org/1999/xlink">
<g><path style="opacity:0.911" fill="#fefffe" d="M 15.5,3.5 C 19.0681,3.75934 20.4015,5.75934 19.5,9.5C 26.1667,9.5 32.8333,9.5 39.5,9.5C 39.3398,7.80081 39.5065,6.13414 40,4.5C 41.3333,3.16667 42.6667,3.16667 44,4.5C 44.4935,6.13414 44.6602,7.80081 44.5,9.5C 51.3093,9.97694 54.6426,13.6436 54.5,20.5C 37.8333,20.5 21.1667,20.5 4.5,20.5C 4.3574,13.6436 7.69073,9.97694 14.5,9.5C 14.3253,7.3792 14.6586,5.3792 15.5,3.5 Z"/></g>
<g><path style="opacity:0.946" fill="#fefffe" d="M 4.5,23.5 C 21.1667,23.5 37.8333,23.5 54.5,23.5C 54.9432,32.6079 54.4432,41.6079 53,50.5C 51.786,52.0488 50.286,53.2155 48.5,54C 35.8333,54.6667 23.1667,54.6667 10.5,54C 8.71398,53.2155 7.21398,52.0488 6,50.5C 4.55678,41.6079 4.05678,32.6079 4.5,23.5 Z M 16.5,29.5 C 20.0952,30.9051 20.2619,32.5717 17,34.5C 16.1667,33.6667 15.3333,32.8333 14.5,32C 15.3805,31.2917 16.0472,30.4584 16.5,29.5 Z M 41.5,29.5 C 45.0952,30.9051 45.2619,32.5717 42,34.5C 41.1667,33.6667 40.3333,32.8333 39.5,32C 40.3805,31.2917 41.0472,30.4584 41.5,29.5 Z M 27.5,30.5 C 28.8333,30.5 30.1667,30.5 31.5,30.5C 31.5,31.5 31.5,32.5 31.5,33.5C 30.1667,33.5 28.8333,33.5 27.5,33.5C 27.5,32.5 27.5,31.5 27.5,30.5 Z M 16.5,39.5 C 20.0952,40.9051 20.2619,42.5717 17,44.5C 16.1667,43.6667 15.3333,42.8333 14.5,42C 15.3805,41.2917 16.0472,40.4584 16.5,39.5 Z M 41.5,39.5 C 45.0952,40.9051 45.2619,42.5717 42,44.5C 41.1667,43.6667 40.3333,42.8333 39.5,42C 40.3805,41.2917 41.0472,40.4584 41.5,39.5 Z M 27.5,40.5 C 28.8333,40.5 30.1667,40.5 31.5,40.5C 31.5,41.5 31.5,42.5 31.5,43.5C 30.1667,43.5 28.8333,43.5 27.5,43.5C 27.5,42.5 27.5,41.5 27.5,40.5 Z"/></g>
</svg>
