<?xml version="1.0" encoding="UTF-8"?>
<!DOCTYPE svg PUBLIC "-//W3C//DTD SVG 1.1//EN" "http://www.w3.org/Graphics/SVG/1.1/DTD/svg11.dtd">
<svg xmlns="http://www.w3.org/2000/svg" version="1.1" width="60px" height="60px" style="shape-rendering:geometricPrecision; text-rendering:geometricPrecision; image-rendering:optimizeQuality; fill-rule:evenodd; clip-rule:evenodd" xmlns:xlink="http://www.w3.org/1999/xlink">
<g><path style="opacity:0.97" fill="#102075" d="M 22.5,4.5 C 37.9828,2.14913 48.4828,8.14913 54,22.5C 56.1667,45.6667 45.6667,56.1667 22.5,54C 20.3853,53.4427 18.3853,52.6094 16.5,51.5C 12.5912,52.915 8.59116,53.915 4.5,54.5C 5.08496,50.4088 6.08496,46.4088 7.5,42.5C 0.386608,24.8129 5.38661,12.1462 22.5,4.5 Z M 19.5,18.5 C 24.2134,20.2604 25.2134,23.2604 22.5,27.5C 24.5447,31.4471 27.7114,34.1138 32,35.5C 33.605,34.8993 34.9384,33.8993 36,32.5C 37.5843,33.8613 39.4176,34.528 41.5,34.5C 41.2203,38.1133 39.2203,40.1133 35.5,40.5C 27.4531,38.6217 21.6198,33.955 18,26.5C 17.1093,23.5024 17.6093,20.8357 19.5,18.5 Z"/></g>
</svg>
