<?xml version="1.0" encoding="UTF-8"?>
<!DOCTYPE svg PUBLIC "-//W3C//DTD SVG 1.1//EN" "http://www.w3.org/Graphics/SVG/1.1/DTD/svg11.dtd">
<svg xmlns="http://www.w3.org/2000/svg" version="1.1" width="60px" height="60px" style="shape-rendering:geometricPrecision; text-rendering:geometricPrecision; image-rendering:optimizeQuality; fill-rule:evenodd; clip-rule:evenodd" xmlns:xlink="http://www.w3.org/1999/xlink">
<g><path style="opacity:0.944" fill="#102075" d="M 9.5,4.5 C 22.8333,7.16667 36.1667,7.16667 49.5,4.5C 49.6734,8.17037 48.0067,10.6704 44.5,12C 40.5138,12.4988 36.5138,12.6655 32.5,12.5C 32.3433,13.8734 32.51,15.2068 33,16.5C 40.7995,18.2967 46.1328,22.9633 49,30.5C 49.4997,38.4931 49.6664,46.4931 49.5,54.5C 36.1667,54.5 22.8333,54.5 9.5,54.5C 9.33362,46.4931 9.50029,38.4931 10,30.5C 12.8672,22.9633 18.2005,18.2967 26,16.5C 26.49,15.2068 26.6567,13.8734 26.5,12.5C 22.4862,12.6655 18.4862,12.4988 14.5,12C 10.9933,10.6704 9.32663,8.17037 9.5,4.5 Z M 26.5,27.5 C 29.0728,27.1485 31.4062,27.6485 33.5,29C 31.3333,31.1667 29.1667,33.3333 27,35.5C 26.3886,39.0876 27.8886,40.2542 31.5,39C 33.6667,36.8333 35.8333,34.6667 38,32.5C 40.1963,38.492 38.3629,42.992 32.5,46C 25.4596,46.9653 21.1263,43.9653 19.5,37C 20.5037,32.8329 22.837,29.6662 26.5,27.5 Z"/></g>
</svg>
