<?xml version="1.0" encoding="UTF-8"?>
<!DOCTYPE svg PUBLIC "-//W3C//DTD SVG 1.1//EN" "http://www.w3.org/Graphics/SVG/1.1/DTD/svg11.dtd">
<svg xmlns="http://www.w3.org/2000/svg" version="1.1" width="60px" height="60px" style="shape-rendering:geometricPrecision; text-rendering:geometricPrecision; image-rendering:optimizeQuality; fill-rule:evenodd; clip-rule:evenodd" xmlns:xlink="http://www.w3.org/1999/xlink">
<g><path style="opacity:0.934" fill="#fefffe" d="M 10.5,2.5 C 22.8378,2.33346 35.1712,2.50012 47.5,3C 51.3333,4.16667 53.8333,6.66667 55,10.5C 55.6667,22.5 55.6667,34.5 55,46.5C 53.9279,50.5733 51.4279,53.4067 47.5,55C 35.1667,55.6667 22.8333,55.6667 10.5,55C 6.66667,53.8333 4.16667,51.3333 3,47.5C 2.33333,35.1667 2.33333,22.8333 3,10.5C 4.35318,6.64987 6.85318,3.9832 10.5,2.5 Z M 42.5,11.5 C 46.1612,11.3501 47.1612,12.8501 45.5,16C 44.2068,16.49 42.8734,16.6567 41.5,16.5C 41.366,14.7085 41.6993,13.0418 42.5,11.5 Z M 24.5,16.5 C 36.1392,15.6403 41.6392,20.9736 41,32.5C 38.0341,40.055 32.5341,42.8883 24.5,41C 16.1218,36.0004 14.2884,29.1671 19,20.5C 21.0153,19.3034 22.8487,17.9701 24.5,16.5 Z"/></g>
<g><path style="opacity:0.882" fill="#fefffe" d="M 25.5,19.5 C 34.4669,18.635 38.6336,22.635 38,31.5C 34.5208,38.6506 29.3541,40.1506 22.5,36C 17.8468,29.4156 18.8468,23.9156 25.5,19.5 Z"/></g>
</svg>
