<?xml version="1.0" encoding="UTF-8"?>
<svg version="1.1" xmlns="http://www.w3.org/2000/svg" width="60" height="60">
<path d="M0 0 C1.03125 0.53625 2.0625 1.0725 3.125 1.625 C5.91614745 3.34472715 5.91614745 3.34472715 8.75 2.25 C9.4925 1.8375 10.235 1.425 11 1 C14.20178039 -0.60089019 17.51768987 -0.3573266 21 0 C26.34740414 1.95385921 29.45618143 4.91236287 32 10 C32.07033769 11.87379605 32.0843022 13.75001102 32.0625 15.625 C32.05347656 16.62789062 32.04445312 17.63078125 32.03515625 18.6640625 C32.02355469 19.43492188 32.01195312 20.20578125 32 21 C29.22754986 21.13487595 26.46162912 21.23400807 23.6875 21.3125 C22.90181641 21.35439453 22.11613281 21.39628906 21.30664062 21.43945312 C19.09872018 21.48643016 17.15673289 21.48230978 15 21 C13.125 18.53125 13.125 18.53125 12 16 C9.40877257 15.11341534 9.40877257 15.11341534 7 15 C6.34 17.97 5.68 20.94 5 24 C4.01 24 3.02 24 2 24 C1.67 23.34 1.34 22.68 1 22 C-5.27 21.67 -11.54 21.34 -18 21 C-18.58097686 9.08997429 -18.58097686 9.08997429 -14 4 C-9.60511783 0.13783082 -5.78146552 -0.39196376 0 0 Z " fill="#FFFFFF" transform="translate(23,7)"/>
<path d="M0 0 C0.48919922 0.72123047 0.48919922 0.72123047 0.98828125 1.45703125 C4.07397274 3.82372666 7.44155967 3.57299527 11.1875 3.6875 C11.93708984 3.72166016 12.68667969 3.75582031 13.45898438 3.79101562 C15.30546838 3.87334294 17.15270994 3.93835281 19 4 C17.48623919 7.56764285 15.39486871 9.83706287 12.6484375 12.546875 C11.79765625 13.39121094 10.946875 14.23554687 10.0703125 15.10546875 C9.18085937 15.97816406 8.29140625 16.85085937 7.375 17.75 C6.4778125 18.63816406 5.580625 19.52632812 4.65625 20.44140625 C2.44192996 22.63216969 0.22307565 24.81812763 -2 27 C-5.53816053 25.48968674 -7.83366147 23.42406644 -10.546875 20.71875 C-11.39121094 19.87699219 -12.23554688 19.03523438 -13.10546875 18.16796875 C-13.97816406 17.28753906 -14.85085937 16.40710938 -15.75 15.5 C-16.63816406 14.61957031 -17.52632812 13.73914062 -18.44140625 12.83203125 C-19.28058594 11.99027344 -20.11976562 11.14851563 -20.984375 10.28125 C-21.75491211 9.50845703 -22.52544922 8.73566406 -23.31933594 7.93945312 C-25 6 -25 6 -25 4 C-22.73078464 3.86510609 -20.4592933 3.76806005 -18.1875 3.6875 C-16.29064453 3.60048828 -16.29064453 3.60048828 -14.35546875 3.51171875 C-13.24816406 3.67285156 -12.14085937 3.83398438 -11 4 C-9.21875 6.46875 -9.21875 6.46875 -8 9 C-5.40877257 9.88658466 -5.40877257 9.88658466 -3 10 C-2.86722656 9.36191406 -2.73445313 8.72382812 -2.59765625 8.06640625 C-2.42105469 7.24011719 -2.24445312 6.41382813 -2.0625 5.5625 C-1.80146484 4.32693359 -1.80146484 4.32693359 -1.53515625 3.06640625 C-1 1 -1 1 0 0 Z " fill="#FFFFFF" transform="translate(33,28)"/>
</svg>
