<?xml version="1.0" encoding="UTF-8"?>
<!DOCTYPE svg PUBLIC "-//W3C//DTD SVG 1.1//EN" "http://www.w3.org/Graphics/SVG/1.1/DTD/svg11.dtd">
<svg xmlns="http://www.w3.org/2000/svg" version="1.1" width="60px" height="60px" style="shape-rendering:geometricPrecision; text-rendering:geometricPrecision; image-rendering:optimizeQuality; fill-rule:evenodd; clip-rule:evenodd" xmlns:xlink="http://www.w3.org/1999/xlink">
<g><path style="opacity:0.916" fill="#fefffe" d="M 22.5,4.5 C 45.6469,2.81308 56.1469,13.4797 54,36.5C 46.1848,54.1106 33.3515,58.9439 15.5,51C 3.82391,41.2593 1.32391,29.4259 8,15.5C 11.8568,10.4678 16.6901,6.8011 22.5,4.5 Z M 26.5,12.5 C 33.6545,12.1527 36.8212,15.486 36,22.5C 31.6667,27.8333 27.3333,27.8333 23,22.5C 22.3333,20.5 22.3333,18.5 23,16.5C 24.3756,15.2949 25.5423,13.9616 26.5,12.5 Z M 23.5,32.5 C 28.5988,32.1746 33.5988,32.6746 38.5,34C 41.5,35.6667 43.8333,38 45.5,41C 34.8333,52.3333 24.1667,52.3333 13.5,41C 15.8247,36.8315 19.158,33.9982 23.5,32.5 Z"/></g>
</svg>
