<?xml version="1.0" encoding="UTF-8"?>
<svg version="1.1" xmlns="http://www.w3.org/2000/svg" width="60" height="60">
<path d="M0 0 C6.21022081 3.77380156 11.12756342 9.38269026 13.4375 16.3125 C14.06027571 24.34732765 14.41847862 31.64415403 9.4375 38.3125 C4.85388456 43.61984419 -0.46283458 47.99473686 -7.63671875 48.55078125 C-16.8461929 48.73994883 -22.33912774 47.95995786 -29.3125 41.9375 C-35.62744532 34.57006379 -36.92244811 29.37808317 -36.84375 19.8359375 C-36.26602578 12.59833686 -33.0249729 7.99461963 -27.5625 3.3125 C-19.66584559 -2.37309117 -9.18150824 -4.36209587 0 0 Z M-16.9375 7.9375 C-19.04956506 11.02436432 -19.17445145 12.6407913 -18.5625 16.3125 C-17.0625 18.8125 -17.0625 18.8125 -14.5625 20.3125 C-10.8907913 20.92445145 -9.27436432 20.79956506 -6.1875 18.6875 C-4.07543494 15.60063568 -3.95054855 13.9842087 -4.5625 10.3125 C-6.0625 7.8125 -6.0625 7.8125 -8.5625 6.3125 C-12.2342087 5.70054855 -13.85063568 5.82543494 -16.9375 7.9375 Z M-25.9375 32 C-26.47375 32.763125 -27.01 33.52625 -27.5625 34.3125 C-23.89596193 39.53026572 -20.37000783 41.57089416 -14.25 43.1875 C-8.00210559 43.39929303 -2.82536789 41.61958521 2 37.625 C2.804375 36.861875 3.60875 36.09875 4.4375 35.3125 C1.8651723 30.55369376 -0.39048417 28.03650528 -5.5625 26.3125 C-13.7266426 25.69989478 -20.2007753 25.5084431 -25.9375 32 Z " fill="#103072" transform="translate(41.5625,6.6875)"/>
</svg>
