<?xml version="1.0" encoding="UTF-8"?>
<!DOCTYPE svg PUBLIC "-//W3C//DTD SVG 1.1//EN" "http://www.w3.org/Graphics/SVG/1.1/DTD/svg11.dtd">
<svg xmlns="http://www.w3.org/2000/svg" version="1.1" width="60px" height="60px" style="shape-rendering:geometricPrecision; text-rendering:geometricPrecision; image-rendering:optimizeQuality; fill-rule:evenodd; clip-rule:evenodd" xmlns:xlink="http://www.w3.org/1999/xlink">
<g><path style="opacity:0.972" fill="#102075" d="M 22.5,4.5 C 45.6469,2.81308 56.1469,13.4797 54,36.5C 46.1848,54.1106 33.3515,58.9439 15.5,51C 3.82391,41.2593 1.32391,29.4259 8,15.5C 11.8568,10.4678 16.6901,6.8011 22.5,4.5 Z M 29.5,20.5 C 32.8123,23.1456 35.8123,26.1456 38.5,29.5C 35.8496,32.6511 33.0162,35.6511 30,38.5C 29.5034,36.1902 29.3367,33.8568 29.5,31.5C 26.1667,31.5 22.8333,31.5 19.5,31.5C 19.5,30.1667 19.5,28.8333 19.5,27.5C 22.8333,27.5 26.1667,27.5 29.5,27.5C 29.5,25.1667 29.5,22.8333 29.5,20.5 Z"/></g>
</svg>
