<?xml version="1.0" encoding="UTF-8"?>
<!DOCTYPE svg PUBLIC "-//W3C//DTD SVG 1.1//EN" "http://www.w3.org/Graphics/SVG/1.1/DTD/svg11.dtd">
<svg xmlns="http://www.w3.org/2000/svg" version="1.1" width="60px" height="60px" style="shape-rendering:geometricPrecision; text-rendering:geometricPrecision; image-rendering:optimizeQuality; fill-rule:evenodd; clip-rule:evenodd" xmlns:xlink="http://www.w3.org/1999/xlink">
<g><path style="opacity:0.924" fill="#102075" d="M 31.5,4.5 C 34.1873,4.33591 36.854,4.50258 39.5,5C 40.8594,12.1926 45.1927,16.0259 52.5,16.5C 52.5,19.1667 52.5,21.8333 52.5,24.5C 48.126,24.971 44.126,23.971 40.5,21.5C 39.6687,28.8108 39.1687,36.1441 39,43.5C 35.0134,53.0713 27.8467,56.5713 17.5,54C 8.88171,50.2638 5.38171,43.7638 7,34.5C 10.2624,24.7742 17.0957,20.4409 27.5,21.5C 27.5,24.5 27.5,27.5 27.5,30.5C 17.6087,28.8889 13.7754,32.8889 16,42.5C 21.4391,48.0909 26.4391,47.7576 31,41.5C 31.4999,29.1712 31.6665,16.8378 31.5,4.5 Z"/></g>
</svg>
