<?xml version="1.0" encoding="UTF-8"?>
<!DOCTYPE svg PUBLIC "-//W3C//DTD SVG 1.1//EN" "http://www.w3.org/Graphics/SVG/1.1/DTD/svg11.dtd">
<svg xmlns="http://www.w3.org/2000/svg" version="1.1" width="60px" height="60px" style="shape-rendering:geometricPrecision; text-rendering:geometricPrecision; image-rendering:optimizeQuality; fill-rule:evenodd; clip-rule:evenodd" xmlns:xlink="http://www.w3.org/1999/xlink">
<g><path style="opacity:0.835" fill="#fefffe" d="M -0.5,1.5 C 5.84209,1.33379 12.1754,1.50046 18.5,2C 22.7128,7.59084 27.0462,13.0908 31.5,18.5C 36.6562,13.1754 41.6562,7.67544 46.5,2C 49.8823,1.17638 53.2156,1.34305 56.5,2.5C 50.019,10.1487 43.3523,17.6487 36.5,25C 44.0301,35.3507 51.6967,45.5174 59.5,55.5C 59.5,56.1667 59.5,56.8333 59.5,57.5C 53.1579,57.6662 46.8246,57.4995 40.5,57C 35.993,50.998 31.3263,45.1646 26.5,39.5C 21.0106,45.1576 15.6773,50.9909 10.5,57C 7.11771,57.8236 3.78437,57.657 0.5,56.5C 7.61839,48.4265 14.6184,40.2598 21.5,32C 14.2676,22.341 6.9343,12.841 -0.5,3.5C -0.5,2.83333 -0.5,2.16667 -0.5,1.5 Z M 11.5,8.5 C 12.8845,7.19914 14.3845,7.19914 16,8.5C 26.1358,22.6027 36.6358,36.436 47.5,50C 45.2992,50.8249 43.4659,50.3249 42,48.5C 31.9698,34.9819 21.8032,21.6486 11.5,8.5 Z"/></g>
</svg>
