<?xml version="1.0" encoding="UTF-8"?>
<!DOCTYPE svg PUBLIC "-//W3C//DTD SVG 1.1//EN" "http://www.w3.org/Graphics/SVG/1.1/DTD/svg11.dtd">
<svg xmlns="http://www.w3.org/2000/svg" version="1.1" width="60px" height="60px" style="shape-rendering:geometricPrecision; text-rendering:geometricPrecision; image-rendering:optimizeQuality; fill-rule:evenodd; clip-rule:evenodd" xmlns:xlink="http://www.w3.org/1999/xlink">
<g><path style="opacity:0.963" fill="#102075" d="M 27.5,6.5 C 29.1439,6.28649 30.6439,6.61983 32,7.5C 32.088,13.6098 32.7547,19.6098 34,25.5C 34.3333,21.8333 34.6667,18.1667 35,14.5C 39.8546,10.3302 44.1879,10.9968 48,16.5C 53.8077,25.732 55.8077,35.732 54,46.5C 48.7273,53.6006 42.7273,54.2672 36,48.5C 34.7677,43.2793 34.1011,37.9459 34,32.5C 32.414,31.624 30.914,30.624 29.5,29.5C 28.086,30.624 26.586,31.624 25,32.5C 24.6667,37.1667 24.3333,41.8333 24,46.5C 19.7013,52.8585 14.2013,54.0252 7.5,50C 2.23075,36.4098 4.56408,24.0765 14.5,13C 18.1547,10.6654 21.3214,11.1654 24,14.5C 24.3333,18.1667 24.6667,21.8333 25,25.5C 26.1647,19.2578 26.998,12.9245 27.5,6.5 Z"/></g>
</svg>
