<?xml version="1.0" encoding="UTF-8"?>
<svg version="1.1" xmlns="http://www.w3.org/2000/svg" width="60" height="60">
<path d="M0 0 C1.98 0 3.96 0 6 0 C6 0.66 6 1.32 6 2 C15.24 2 24.48 2 34 2 C34 1.34 34 0.68 34 0 C35.98 0 37.96 0 40 0 C39.68466796 2.91682137 39.45209742 4.54790258 37.34375 6.65625 C34.30982472 8.39570049 32.22266891 8.3007392 28.75 8.1875 C27.13351563 8.14689453 27.13351563 8.14689453 25.484375 8.10546875 C24.66453125 8.07066406 23.8446875 8.03585937 23 8 C23.25565442 9.96734223 23.25565442 9.96734223 24 12 C25.68059935 12.75791735 27.36758507 13.50627992 29.08984375 14.1640625 C33.19308247 15.95975388 36.13445548 18.75157932 38.66015625 22.39453125 C40.63708595 27.71437415 40.31557431 32.75559787 40.1875 38.375 C40.125625 42.21125 40.06375 46.0475 40 50 C26.8 50 13.6 50 0 50 C-0.103125 46.205 -0.20625 42.41 -0.3125 38.5 C-0.35802002 37.31986328 -0.40354004 36.13972656 -0.45043945 34.92382812 C-0.54180631 27.93986371 0.40568291 23.36541504 5 18 C7.76827993 15.30270161 9.55061212 14.13827319 13.25 13 C14.1575 12.67 15.065 12.34 16 12 C16.71295144 9.98254541 16.71295144 9.98254541 17 8 C16.19175781 8.04640625 15.38351563 8.0928125 14.55078125 8.140625 C5.80946976 8.43586833 5.80946976 8.43586833 1.75 6.25 C0 4 0 4 0 0 Z M11 28 C9.80313618 30.99215956 9.86534943 32.44793264 10.625 35.5625 C12.36187479 38.64150531 13.98551824 40.15020438 17 42 C21.25675574 42.81512344 22.66385895 42.22197994 26.3125 39.8125 C29.03352649 36.96491413 30 35.880996 30 32 C29.15922128 29.73142854 29.15922128 29.73142854 28 28 C27.61328125 28.433125 27.2265625 28.86625 26.828125 29.3125 C26.30734375 29.869375 25.7865625 30.42625 25.25 31 C24.73953125 31.556875 24.2290625 32.11375 23.703125 32.6875 C22 34 22 34 18 34 C18.50522222 29.62140745 21.17827222 27.18348776 24 24 C22.91364731 22.71277975 22.91364731 22.71277975 20.3125 22.625 C15.84310206 23.13096958 14.07157226 24.78556392 11 28 Z " fill="#FFFFFF" transform="translate(10,5)"/>
</svg>
