<?xml version="1.0" encoding="UTF-8"?>
<svg version="1.1" xmlns="http://www.w3.org/2000/svg" width="413" height="600">
<path d="M0 0 C1.32 0 2.64 0 4 0 C6.90143571 9.33607136 5.12592397 20.26109715 3.4375 29.6875 C1.21450234 42.04375934 1.21450234 42.04375934 4 54 C7.557631 54.47740269 8.84754132 54.10295104 11.875 52.05859375 C12.92356976 51.19319272 13.96491006 50.31897962 15 49.4375 C21.10409551 44.50764226 27.53874487 39.64449549 35 37 C37.37109375 37.828125 37.37109375 37.828125 39 39 C39.29296875 41.78125 39.29296875 41.78125 39 45 C37.05078125 46.84375 37.05078125 46.84375 34.3125 48.5 C14.51448405 61.85984367 0.08402826 83.89562028 -5 107 C-5.51209657 110.66643933 -5.84904637 114.30163597 -6 118 C-3.71163778 118.41986946 -3.71163778 118.41986946 -1 118 C1.56134327 115.82000163 1.56134327 115.82000163 4 113 C5.92833502 111.19667428 7.86279392 109.40472847 9.8125 107.625 C10.33730957 107.14240723 10.86211914 106.65981445 11.40283203 106.16259766 C14.33033574 103.48092172 17.31141391 100.90142553 20.375 98.375 C26.42114578 93.0892973 29.83733757 86.35731461 33.5 79.3125 C36.157508 74.29145612 38.54684467 70.54228265 43 67 C43.99 67 44.98 67 46 67 C45.87882813 67.77714355 45.75765625 68.55428711 45.6328125 69.35498047 C45.08698256 72.86141303 44.54346224 76.36819973 44 79.875 C43.80921875 81.09832031 43.6184375 82.32164062 43.421875 83.58203125 C43.24140625 84.74863281 43.0609375 85.91523438 42.875 87.1171875 C42.62363281 88.73536377 42.62363281 88.73536377 42.3671875 90.38623047 C41.95362802 92.89018618 41.95362802 92.89018618 42 95 C42.97582031 94.96519531 43.95164062 94.93039062 44.95703125 94.89453125 C46.22933594 94.86746094 47.50164062 94.84039062 48.8125 94.8125 C50.07707031 94.77769531 51.34164062 94.74289062 52.64453125 94.70703125 C56 95 56 95 57.94921875 96.51171875 C58.29597656 97.00285156 58.64273438 97.49398437 59 98 C58.67 98.99 58.34 99.98 58 101 C55.92618092 101.41476382 53.85216524 101.82856137 51.77734375 102.23828125 C34.52689591 106.96941673 16.57518977 123.14350725 7.56640625 138.109375 C1.36048454 149.56169936 -1.39310174 160.51961519 -1.3125 173.5 C-1.30758545 174.45197266 -1.3026709 175.40394531 -1.29760742 176.38476562 C-0.99155724 195.20606702 2.57955829 214.20844754 15.375 228.6875 C26.98262711 238.91326674 38.32721346 243.26966487 53.79296875 243.30859375 C55.65950819 243.33376427 57.52604457 243.35916213 59.39257812 243.38476562 C62.28392663 243.41335413 65.17522206 243.43741983 68.06665039 243.45629883 C100.09916303 243.70537673 100.09916303 243.70537673 111 253 C114 257.35761589 114 257.35761589 114 260 C108.99988418 258.07973289 104.24954798 255.70816058 99.44921875 253.33984375 C92.69256203 250.71523078 86.71194203 250.87264324 79.6875 251.8125 C78.12118841 252.00467936 76.55477822 252.19605643 74.98828125 252.38671875 C74.17955566 252.48774902 73.37083008 252.5887793 72.53759766 252.69287109 C68.15572381 253.22321526 63.76534064 253.67114184 59.375 254.125 C57.75780055 254.2941566 56.14061194 254.46341693 54.5234375 254.6328125 C53.36070312 254.75398437 52.19796875 254.87515625 51 255 C50.67 256.32 50.34 257.64 50 259 C51.20914063 259.25265625 52.41828125 259.5053125 53.6640625 259.765625 C59.97405207 261.17223198 66.1685408 262.94723691 72.375 264.75 C74.1075 265.23339844 74.1075 265.23339844 75.875 265.7265625 C86.88546963 268.93277149 99.05891547 273.41065951 105.08984375 283.89453125 C106.37808254 286.71440879 107 288.88689588 107 292 C103.88066628 290.5814277 101.14824036 288.76252092 98.32861328 286.82592773 C91.13044017 281.93128942 84.53083584 279.02642778 76 277 C76.25692627 277.53367187 76.51385254 278.06734375 76.77856445 278.6171875 C77.96006394 281.0764509 79.1363046 283.53819568 80.3125 286 C80.71662109 286.83917969 81.12074219 287.67835938 81.53710938 288.54296875 C86.57633622 299.11305433 89.24071702 308.20486588 89 320 C88.34 320 87.68 320 87 320 C86.74943848 319.49774902 86.49887695 318.99549805 86.24072266 318.47802734 C73.25404538 292.64013474 60.61173713 278.0380479 33.22070312 267.49584961 C31.10462874 266.67964245 28.99371018 265.85097454 26.8828125 265.02148438 C25.52893723 264.49664352 24.17478053 263.97252794 22.8203125 263.44921875 C21.60617676 262.97830811 20.39204102 262.50739746 19.14111328 262.0222168 C15.91660088 260.7936953 15.91660088 260.7936953 12 261 C11.65690322 264.18348818 11.73353706 265.61445116 13.58203125 268.2890625 C14.31808594 269.05992187 15.05414063 269.83078125 15.8125 270.625 C16.63878906 271.49253906 17.46507812 272.36007812 18.31640625 273.25390625 C19.20199219 274.16011719 20.08757812 275.06632812 21 276 C21.85464844 276.91652344 22.70929688 277.83304687 23.58984375 278.77734375 C32.4944909 288.10041779 42.62953407 294.64475808 53.5625 301.39453125 C63.58849492 307.99819137 69.45405662 317.61145212 73 329 C73.33123105 331.5182053 73.28819413 333.46389165 73 336 C72.34 336 71.68 336 71 336 C70.53851563 334.9378125 70.07703125 333.875625 69.6015625 332.78125 C61.58072492 315.07720339 48.51177996 308.812048 31 302 C34.52244255 313.7866347 39.27472116 324.46449631 45.23046875 335.22265625 C46.47214443 338.09048587 46.11818626 340.92715716 46 344 C45.34 344 44.68 344 44 344 C42.41352187 341.56700555 40.93842077 339.14338525 39.5 336.625 C38.70055629 335.24065978 37.89857534 333.8577809 37.09375 332.4765625 C36.73990234 331.85861816 36.38605469 331.24067383 36.02148438 330.60400391 C34.97089251 328.82649008 34.97089251 328.82649008 33 327 C32.96261719 327.86882812 32.92523438 328.73765625 32.88671875 329.6328125 C32.23374341 341.07908612 32.23374341 341.07908612 29 346 C28.34 345.67 27.68 345.34 27 345 C26.96261719 343.90042969 26.92523438 342.80085938 26.88671875 341.66796875 C26.29016954 327.05417008 23.62688345 316.88291062 15.22167969 304.76855469 C14.03430692 303.04966413 12.87727064 301.31390073 11.7265625 299.5703125 C6.16217298 291.27253866 0.25528935 282.82508058 -8 277 C-8.61769033 292.75110342 -7.02139853 301.53927128 2.98925781 313.90161133 C12.57431415 325.80516253 14.48050288 340.91193385 13 356 C11.984375 358.36328125 11.984375 358.36328125 11 360 C10.34 360 9.68 360 9 360 C8.7666394 358.93471069 8.7666394 358.93471069 8.52856445 357.84790039 C7.8045195 354.58265691 7.0586906 351.32275084 6.3125 348.0625 C6.06822266 346.94552734 5.82394531 345.82855469 5.57226562 344.67773438 C3.56007061 335.99218373 0.90243278 328.12577139 -5.8125 321.9375 C-6.41707031 321.36902344 -7.02164063 320.80054688 -7.64453125 320.21484375 C-8.09183594 319.81394531 -8.53914062 319.41304687 -9 319 C-9.14695313 320.75763672 -9.14695313 320.75763672 -9.296875 322.55078125 C-10.50233648 335.69185141 -12.41141246 349.25458885 -22.8125 358.5 C-23.534375 358.995 -24.25625 359.49 -25 360 C-24.63422147 354.87910062 -23.83750545 350.16801615 -22.49633789 345.20288086 C-19.36538079 333.56130117 -18.64692362 325.9339771 -24.28491211 314.91137695 C-27.79177702 307.86647104 -28.94720667 300.74013659 -30 293 C-30.13019531 292.13503906 -30.26039063 291.27007812 -30.39453125 290.37890625 C-31.16711762 284.59996021 -31.09791851 278.82071161 -31 273 C-40.47777293 278.64153151 -46.13724187 287.2875185 -49.3125 297.8125 C-50.81508229 304.89610222 -50.69889372 312.58727663 -49.0625 319.625 C-46.71004527 329.96564635 -44.76039347 345.02445523 -49 355 C-51.08203125 356.78125 -51.08203125 356.78125 -53 358 C-52.835 356.989375 -52.67 355.97875 -52.5 354.9375 C-51.2002716 343.93830591 -51.67282859 334.3284797 -55.125 323.828125 C-56 321 -56 321 -56 318 C-56.66 318 -57.32 318 -58 318 C-58.36351562 319.27230469 -58.36351562 319.27230469 -58.734375 320.5703125 C-60.12974422 324.35159082 -62.07971662 327.51225323 -64.25 330.875 C-69.03873828 338.5255495 -72.1414102 346.46907121 -75 355 C-75.66 355 -76.32 355 -77 355 C-77.77684474 343.33006574 -75.87332073 335.25675011 -69.76953125 325.328125 C-63.68054181 315.33138854 -61.17287245 306.64783672 -60 295 C-61.41539062 295.88751953 -61.41539062 295.88751953 -62.859375 296.79296875 C-68.93689663 300.54925895 -74.78631681 304.09458895 -81.5 306.625 C-90.82257229 310.32660959 -94.71639089 316.95110067 -100 325.17578125 C-102.60749337 328.85784708 -105.40545556 331.30409167 -109 334 C-108.49051225 328.38107795 -106.98085063 324.22640452 -104.375 319.25 C-103.83540649 318.20610107 -103.83540649 318.20610107 -103.28491211 317.14111328 C-102.20753625 315.08406767 -101.1088932 313.0402002 -100 311 C-99.41605469 309.91976563 -98.83210938 308.83953125 -98.23046875 307.7265625 C-95.0435413 302.27818536 -92.01408812 298.65890043 -86.50390625 295.51171875 C-79.4925078 291.27862796 -73.5892449 285.95318893 -67.8125 280.1875 C-66.78479492 279.1965332 -66.78479492 279.1965332 -65.73632812 278.18554688 C-60.36722409 272.84744825 -56.40782517 267.22347552 -54 260 C-62.98336802 262.26165779 -71.67960568 265.19921571 -80.375 268.375 C-81.39658203 268.73779053 -82.41816406 269.10058105 -83.47070312 269.47436523 C-92.69829625 272.90457682 -99.35339908 277.58167119 -105.5625 285.1875 C-106.02938232 285.74920898 -106.49626465 286.31091797 -106.97729492 286.88964844 C-111.1292669 291.97615479 -114.59591821 297.39177525 -118 303 C-119.56243046 305.3544959 -121.1457793 307.69312856 -122.73828125 310.02734375 C-123.9772508 311.96443237 -125.0115347 313.92561508 -126 316 C-126.66 316 -127.32 316 -128 316 C-126.86711121 305.80400089 -121.95647361 297.79111163 -117 289 C-122.72607403 290.46197635 -128.29536121 292.05794505 -133.8125 294.1875 C-137.69467679 295.65026862 -140.79643412 296.45443956 -145 296 C-143.05301131 292.39288302 -141.35168828 290.19556103 -137.9375 287.9375 C-137.04289062 287.34066406 -136.14828125 286.74382812 -135.2265625 286.12890625 C-134.16179687 285.42636719 -133.09703125 284.72382813 -132 284 C-130.71473665 283.11532504 -129.43098029 282.2284582 -128.1484375 281.33984375 C-118.59056141 274.77479345 -108.76831031 268.88043571 -98.61645508 263.27685547 C-97.68341553 262.7613916 -96.75037598 262.24592773 -95.7890625 261.71484375 C-94.96100098 261.26230225 -94.13293945 260.80976074 -93.27978516 260.34350586 C-91.05337444 259.03145423 -89.03392772 257.59099514 -87 256 C-106.3542677 250.54588996 -125.36939404 257.76401044 -142.40966797 266.37817383 C-143.36373535 266.85794678 -144.31780273 267.33771973 -145.30078125 267.83203125 C-146.15841064 268.27264893 -147.01604004 268.7132666 -147.8996582 269.16723633 C-148.592771 269.44204834 -149.28588379 269.71686035 -150 270 C-150.66 269.67 -151.32 269.34 -152 269 C-141.37792134 253.50946862 -127.29814253 247.49100055 -109.3125 243.38671875 C-105.35936377 242.92520874 -101.52263403 242.98990042 -97.54736328 243.06591797 C-80.11254688 243.39062365 -67.01164895 241.12793807 -53.80859375 228.9609375 C-41.04687232 215.12425466 -37.94777809 194.12625603 -37 176 C-36.95875 175.29359375 -36.9175 174.5871875 -36.875 173.859375 C-36.29932458 154.43032944 -42.15986683 137.25217457 -54.94921875 122.796875 C-68.70155443 109.50385112 -86.03744322 101.55365129 -105 101 C-104.2265625 97.2109375 -104.2265625 97.2109375 -102.1875 95.3125 C-94.06188516 90.43713109 -81.94379533 93.28754973 -73 94 C-71.58283929 89.53353447 -72.95942939 86.17955739 -74.375 81.875 C-79.39607248 65.79214497 -79.39607248 65.79214497 -77 61 C-76.34 61 -75.68 61 -75 61 C-73.43331541 62.66898675 -71.944819 64.41196756 -70.5 66.1875 C-69.30890625 67.63189453 -69.30890625 67.63189453 -68.09375 69.10546875 C-66.19941471 71.7243166 -65.02404713 73.95568596 -64 77 C-60.18139949 73.73662627 -58.65480159 69.28884827 -56.59765625 64.8125 C-54.99911436 61.99844093 -53.71593673 60.68939477 -51 59 C-51.46856093 62.20183302 -52.02586716 65.07185322 -53.125 68.125 C-55.35597696 78.00504084 -52.78357498 87.26168729 -48 96 C-43.45409006 102.70230312 -37.8493663 108.43065655 -32 114 C-22.87102543 103.21368184 -19.14164479 83.3401856 -19.72265625 69.55859375 C-21.07989043 57.03763056 -24.8863638 46.38809193 -30 35 C-30.4434375 34.00871094 -30.886875 33.01742187 -31.34375 31.99609375 C-31.7046875 31.19300781 -32.065625 30.38992187 -32.4375 29.5625 C-34 26 -34 26 -34 24 C-30.16753213 24.56002612 -27.67189448 25.6066931 -24.5 27.8125 C-23.34177734 28.61494141 -23.34177734 28.61494141 -22.16015625 29.43359375 C-19.70682607 31.21259086 -17.32205991 33.05246588 -15 35 C-7.79679007 24.19518511 -2.50833242 12.74823065 0 0 Z " fill="#1B3274" transform="translate(229,217)"/>
<path d="M0 0 C9.57 0 19.14 0 29 0 C29 12.87 29 25.74 29 39 C40.88 39 52.76 39 65 39 C65 49.89 65 60.78 65 72 C53.12 72 41.24 72 29 72 C29 84.87 29 97.74 29 111 C19.43 111 9.86 111 0 111 C0 98.13 0 85.26 0 72 C-11.88 72 -23.76 72 -36 72 C-36 61.11 -36 50.22 -36 39 C-24.12 39 -12.24 39 0 39 C0 26.13 0 13.26 0 0 Z " fill="#02671C" transform="translate(161,27)"/>
<path d="M0 0 C10.23 0 20.46 0 31 0 C31 12.21 31 24.42 31 37 C42.88 37 54.76 37 67 37 C67 46.9 67 56.8 67 67 C55.12 67 43.24 67 31 67 C31 78.88 31 90.76 31 103 C20.77 103 10.54 103 0 103 C0 91.12 0 79.24 0 67 C-11.88 67 -23.76 67 -36 67 C-36 57.1 -36 47.2 -36 37 C-24.12 37 -12.24 37 0 37 C0 24.79 0 12.58 0 0 Z " fill="#04671D" transform="translate(275,48)"/>
<path d="M0 0 C8.91 0 17.82 0 27 0 C27 10.23 27 20.46 27 31 C37.56 31 48.12 31 59 31 C59 39.91 59 48.82 59 58 C48.44 58 37.88 58 27 58 C27 68.56 27 79.12 27 90 C18.09 90 9.18 90 0 90 C0 79.44 0 68.88 0 58 C-10.56 58 -21.12 58 -32 58 C-32 49.09 -32 40.18 -32 31 C-21.44 31 -10.88 31 0 31 C0 20.77 0 10.54 0 0 Z " fill="#02661B" transform="translate(88,84)"/>
<path d="M0 0 C8.25 0 16.5 0 25 0 C25 9.9 25 19.8 25 30 C34.57 30 44.14 30 54 30 C54 38.25 54 46.5 54 55 C44.43 55 34.86 55 25 55 C25 64.57 25 74.14 25 84 C16.75 84 8.5 84 0 84 C0 74.43 0 64.86 0 55 C-9.57 55 -19.14 55 -29 55 C-29 46.75 -29 38.5 -29 30 C-19.43 30 -9.86 30 0 30 C0 20.1 0 10.2 0 0 Z " fill="#02661C" transform="translate(332,132)"/>
<path d="M0 0 C8.58 0 17.16 0 26 0 C26 9.57 26 19.14 26 29 C35.57 29 45.14 29 55 29 C55 36.92 55 44.84 55 53 C45.43 53 35.86 53 26 53 C26 62.24 26 71.48 26 81 C17.42 81 8.84 81 0 81 C0 71.76 0 62.52 0 53 C-9.57 53 -19.14 53 -29 53 C-29 45.08 -29 37.16 -29 29 C-19.43 29 -9.86 29 0 29 C0 19.43 0 9.86 0 0 Z " fill="#04671D" transform="translate(224,125)"/>
<path d="M0 0 C7.92 0 15.84 0 24 0 C24 9.9 24 19.8 24 30 C32.91 30 41.82 30 51 30 C51 38.25 51 46.5 51 55 C42.09 55 33.18 55 24 55 C24 64.9 24 74.8 24 85 C16.08 85 8.16 85 0 85 C0 75.1 0 65.2 0 55 C-8.91 55 -17.82 55 -27 55 C-27 46.75 -27 38.5 -27 30 C-18.09 30 -9.18 30 0 30 C0 20.1 0 10.2 0 0 Z " fill="#04671D" transform="translate(134,177)"/>
<path d="M0 0 C7.92 0 15.84 0 24 0 C24 9.24 24 18.48 24 28 C33.24 28 42.48 28 52 28 C52 35.59 52 43.18 52 51 C42.76 51 33.52 51 24 51 C24 60.24 24 69.48 24 79 C16.08 79 8.16 79 0 79 C0 69.76 0 60.52 0 51 C-9.24 51 -18.48 51 -28 51 C-28 43.41 -28 35.82 -28 28 C-18.76 28 -9.52 28 0 28 C0 18.76 0 9.52 0 0 Z " fill="#02661C" transform="translate(282,195)"/>
<path d="M0 0 C6.93 0 13.86 0 21 0 C21 8.25 21 16.5 21 25 C29.25 25 37.5 25 46 25 C46 31.93 46 38.86 46 46 C37.75 46 29.5 46 21 46 C21 54.25 21 62.5 21 71 C14.07 71 7.14 71 0 71 C0 62.75 0 54.5 0 46 C-8.25 46 -16.5 46 -25 46 C-25 39.07 -25 32.14 -25 25 C-16.75 25 -8.5 25 0 25 C0 16.75 0 8.5 0 0 Z " fill="#03671C" transform="translate(322,250)"/>
<path d="M0 0 C6.93 0 13.86 0 21 0 C21 8.25 21 16.5 21 25 C29.25 25 37.5 25 46 25 C46 31.93 46 38.86 46 46 C37.75 46 29.5 46 21 46 C21 54.25 21 62.5 21 71 C14.07 71 7.14 71 0 71 C0 62.75 0 54.5 0 46 C-8.25 46 -16.5 46 -25 46 C-25 39.07 -25 32.14 -25 25 C-16.75 25 -8.5 25 0 25 C0 16.75 0 8.5 0 0 Z " fill="#03671C" transform="translate(72,250)"/>
<path d="M0 0 C6.93 0 13.86 0 21 0 C21 8.25 21 16.5 21 25 C29.25 25 37.5 25 46 25 C46 31.93 46 38.86 46 46 C37.75 46 29.5 46 21 46 C21 54.25 21 62.5 21 71 C14.07 71 7.14 71 0 71 C0 62.75 0 54.5 0 46 C-8.25 46 -16.5 46 -25 46 C-25 39.07 -25 32.14 -25 25 C-16.75 25 -8.5 25 0 25 C0 16.75 0 8.5 0 0 Z " fill="#03671C" transform="translate(39,158)"/>
<path d="M0 0 C1.18414294 3.55242882 0.69535532 4.69830562 -0.4375 8.1875 C-0.72496094 9.08855469 -1.01242188 9.98960937 -1.30859375 10.91796875 C-1.53675781 11.60503906 -1.76492187 12.29210937 -2 13 C-2.66 12.01 -3.32 11.02 -4 10 C-4.99 10.495 -4.99 10.495 -6 11 C-4.74194623 6.49197399 -3.09592835 3.5087188 0 0 Z " fill="#5F709D" transform="translate(177,276)"/>
<path d="M0 0 C0.33 0 0.66 0 1 0 C0.50769231 7.50769231 0.50769231 7.50769231 -2.0625 10 C-3.0215625 10.495 -3.0215625 10.495 -4 11 C-3.67 8.36 -3.34 5.72 -3 3 C-2.34 3 -1.68 3 -1 3 C-0.67 2.01 -0.34 1.02 0 0 Z " fill="#6878A2" transform="translate(180,564)"/>
<path d="M0 0 C0.66 0.33 1.32 0.66 2 1 C0.02 2.98 -1.96 4.96 -4 7 C-3.34 7.66 -2.68 8.32 -2 9 C-3.98 9 -5.96 9 -8 9 C-5.89851796 5.01824456 -3.63094642 2.64960955 0 0 Z " fill="#63759E" transform="translate(92,504)"/>
<path d="M0 0 C-0.33 2.64 -0.66 5.28 -1 8 C-1.33 8 -1.66 8 -2 8 C-2.33 6.35 -2.66 4.7 -3 3 C-5.97 5.475 -5.97 5.475 -9 8 C-7.13554727 3.64961029 -5.02378599 0 0 0 Z " fill="#5C6F9A" transform="translate(275,284)"/>
<path d="M0 0 C0.66 0.33 1.32 0.66 2 1 C-0.97 3.97 -3.94 6.94 -7 10 C-7 7 -7 7 -4.625 4.4375 C-3.75875 3.633125 -2.8925 2.82875 -2 2 C-1.34 1.34 -0.68 0.68 0 0 Z " fill="#5B6C9C" transform="translate(141,513)"/>
<path d="M0 0 C-0.99 0.33 -1.98 0.66 -3 1 C-3.73323796 3.01508358 -3.73323796 3.01508358 -4 5 C-5.32 4.67 -6.64 4.34 -8 4 C-7.67 3.01 -7.34 2.02 -7 1 C-4.53721199 -0.231394 -2.7204945 -0.07159196 0 0 Z " fill="#3B7D5B" transform="translate(283,471)"/>
<path d="M0 0 C0.33 0 0.66 0 1 0 C1 6.27 1 12.54 1 19 C0.67 19 0.34 19 0 19 C0 12.73 0 6.46 0 0 Z " fill="#849C86" transform="translate(388,199)"/>
<path d="" fill="#A4B4A6" transform="translate(0,0)"/>
</svg>
