<?xml version="1.0" encoding="UTF-8"?>
<!DOCTYPE svg PUBLIC "-//W3C//DTD SVG 1.1//EN" "http://www.w3.org/Graphics/SVG/1.1/DTD/svg11.dtd">
<svg xmlns="http://www.w3.org/2000/svg" version="1.1" width="1109px" height="555px" style="shape-rendering:geometricPrecision; text-rendering:geometricPrecision; image-rendering:optimizeQuality; fill-rule:evenodd; clip-rule:evenodd" xmlns:xlink="http://www.w3.org/1999/xlink">
<g><path style="opacity:1" fill="#fefefe" d="M -0.5,-0.5 C 369.167,-0.5 738.833,-0.5 1108.5,-0.5C 1108.5,184.5 1108.5,369.5 1108.5,554.5C 738.833,554.5 369.167,554.5 -0.5,554.5C -0.5,369.5 -0.5,184.5 -0.5,-0.5 Z"/></g>
<g><path style="opacity:1" fill="#114f1d" d="M 181.5,9.5 C 181.333,44.1603 180.833,44.1603 180,9.5C 172,8.16667 164,8.16667 156,9.5C 155.83,18.343 155.33,27.0097 154.5,35.5C 154.334,26.4938 154.5,17.4938 155,8.5C 155.5,8 156,7.5 156.5,7C 163.833,6.33333 171.167,6.33333 178.5,7C 179.942,7.37675 180.942,8.21009 181.5,9.5 Z"/></g>
<g><path style="opacity:1" fill="#00612c" d="M 181.5,9.5 C 182.493,17.9839 182.826,26.6506 182.5,35.5C 191.173,35.3336 199.84,35.5002 208.5,36C 209.648,44.0876 209.815,52.2543 209,60.5C 208.5,61 208,61.5 207.5,62C 199.173,62.4997 190.84,62.6664 182.5,62.5C 182.831,71.1922 182.498,79.8589 181.5,88.5C 173.215,89.6362 164.882,89.8029 156.5,89C 156,88.5 155.5,88 155,87.5C 154.829,78.9899 154.329,70.6566 153.5,62.5C 144.63,61.7809 135.63,61.1143 126.5,60.5C 125.169,52.5299 125.169,44.5299 126.5,36.5C 135.81,35.5017 145.143,35.1684 154.5,35.5C 155.33,27.0097 155.83,18.343 156,9.5C 164,8.16667 172,8.16667 180,9.5C 180.833,44.1603 181.333,44.1603 181.5,9.5 Z"/></g>
<g><path style="opacity:1" fill="#00612d" d="M 264.5,58.5 C 264.167,58.5 263.833,58.5 263.5,58.5C 262.675,62.6472 262.175,66.9805 262,71.5C 257.732,72.1401 253.565,72.8067 249.5,73.5C 248.883,73.3893 248.383,73.056 248,72.5C 247.501,67.8452 247.334,63.1785 247.5,58.5C 242.821,58.6658 238.155,58.4992 233.5,58C 232.944,57.6174 232.611,57.1174 232.5,56.5C 233.483,52.7016 233.817,48.7016 233.5,44.5C 238.179,44.6658 242.845,44.4992 247.5,44C 248,43.5 248.5,43 249,42.5C 249.333,37.8333 249.667,33.1667 250,28.5C 254,27.1667 258,27.1667 262,28.5C 262.499,33.4889 262.666,38.4889 262.5,43.5C 267.5,43.5 272.5,43.5 277.5,43.5C 277.5,48.1667 277.5,52.8333 277.5,57.5C 272.968,57.1818 268.634,57.5151 264.5,58.5 Z"/></g>
<g><path style="opacity:1" fill="#054b18" d="M 264.5,58.5 C 268.634,57.5151 272.968,57.1818 277.5,57.5C 277.5,52.8333 277.5,48.1667 277.5,43.5C 272.5,43.5 267.5,43.5 262.5,43.5C 262.666,38.4889 262.499,33.4889 262,28.5C 258,27.1667 254,27.1667 250,28.5C 249.667,33.1667 249.333,37.8333 249,42.5C 248.5,43 248,43.5 247.5,44C 242.845,44.4992 238.179,44.6658 233.5,44.5C 233.817,48.7016 233.483,52.7016 232.5,56.5C 232.5,51.8333 232.5,47.1667 232.5,42.5C 237.5,42.5 242.5,42.5 247.5,42.5C 247.334,37.4889 247.501,32.4889 248,27.5C 253,26.1667 258,26.1667 263,27.5C 263.499,32.4889 263.666,37.4889 263.5,42.5C 268.511,42.3341 273.511,42.5007 278.5,43C 279.833,48 279.833,53 278.5,58C 273.845,58.4992 269.179,58.6658 264.5,58.5 Z"/></g>
<g><path style="opacity:1" fill="#003604" d="M 126.5,60.5 C 135.63,61.1143 144.63,61.7809 153.5,62.5C 144.827,62.6664 136.16,62.4998 127.5,62C 126.944,61.6174 126.611,61.1174 126.5,60.5 Z"/></g>
<g><path style="opacity:1" fill="#003703" d="M 263.5,58.5 C 263.666,63.1785 263.499,67.8452 263,72.5C 258.599,73.4667 254.099,73.8 249.5,73.5C 253.565,72.8067 257.732,72.1401 262,71.5C 262.175,66.9805 262.675,62.6472 263.5,58.5 Z"/></g>
<g><path style="opacity:1" fill="#01602c" d="M 312.5,71.5 C 318.987,72.3283 325.654,72.8283 332.5,73C 333.416,73.3742 334.25,73.8742 335,74.5C 335.17,83.676 335.67,92.676 336.5,101.5C 345.839,101.334 355.173,101.5 364.5,102C 365,102.5 365.5,103 366,103.5C 366.667,111.5 366.667,119.5 366,127.5C 365.25,128.126 364.416,128.626 363.5,129C 354.84,129.5 346.173,129.666 337.5,129.5C 337.666,138.506 337.5,147.506 337,156.5C 336.535,157.931 335.701,159.097 334.5,160C 326.833,160.667 319.167,160.667 311.5,160C 310.667,159.167 309.833,158.333 309,157.5C 308.5,148.173 308.334,138.839 308.5,129.5C 299.494,129.666 290.494,129.5 281.5,129C 280.584,128.626 279.75,128.126 279,127.5C 278.333,119.833 278.333,112.167 279,104.5C 279.5,103.333 280.333,102.5 281.5,102C 290.494,101.5 299.494,101.334 308.5,101.5C 308.334,92.1607 308.5,82.8274 309,73.5C 309.816,72.1772 310.983,71.5106 312.5,71.5 Z"/></g>
<g><path style="opacity:1" fill="#01612d" d="M 102.5,74.5 C 103.472,83.75 103.805,93.0833 103.5,102.5C 112.705,103.191 122.038,103.858 131.5,104.5C 132.498,112.807 132.831,121.14 132.5,129.5C 122.828,129.334 113.161,129.5 103.5,130C 102.172,139.598 102.172,149.098 103.5,158.5C 103.047,159.458 102.381,160.292 101.5,161C 93.0629,161.937 84.7296,161.604 76.5,160C 75.8742,159.25 75.3742,158.416 75,157.5C 74.5002,148.84 74.3336,140.173 74.5,131.5C 65.4938,131.666 56.4938,131.5 47.5,131C 46.0577,130.623 45.0577,129.79 44.5,128.5C 44.1996,120.777 44.5329,113.11 45.5,105.5C 46.376,104.749 47.376,104.249 48.5,104C 57.7444,103.819 66.911,103.319 76,102.5C 76.1808,93.2556 76.6808,84.089 77.5,75C 85.8267,74.5003 94.16,74.3336 102.5,74.5 Z"/></g>
<g><path style="opacity:1" fill="#003e06" d="M 312.5,71.5 C 319.841,71.3337 327.174,71.5003 334.5,72C 335,72.5 335.5,73 336,73.5C 336.5,82.8274 336.666,92.1607 336.5,101.5C 335.67,92.676 335.17,83.676 335,74.5C 334.25,73.8742 333.416,73.3742 332.5,73C 325.654,72.8283 318.987,72.3283 312.5,71.5 Z"/></g>
<g><path style="opacity:1" fill="#014d16" d="M 102.5,74.5 C 94.16,74.3336 85.8267,74.5003 77.5,75C 76.6808,84.089 76.1808,93.2556 76,102.5C 66.911,103.319 57.7444,103.819 48.5,104C 47.376,104.249 46.376,104.749 45.5,105.5C 44.5329,113.11 44.1996,120.777 44.5,128.5C 43.3439,120.677 43.1772,112.677 44,104.5C 44.5,104 45,103.5 45.5,103C 55.1609,102.5 64.8276,102.334 74.5,102.5C 74.3336,93.4938 74.5002,84.4938 75,75.5C 75.8333,74.6667 76.6667,73.8333 77.5,73C 81.6667,72.8333 85.8333,72.6667 90,72.5C 94.5572,72.5085 98.7238,73.1752 102.5,74.5 Z"/></g>
<g><path style="opacity:1" fill="#01612d" d="M 232.5,90.5 C 231.507,98.9839 231.174,107.651 231.5,116.5C 240.808,117.221 250.141,117.721 259.5,118C 260.482,125.747 260.815,133.58 260.5,141.5C 259.01,143.28 257.01,143.946 254.5,143.5C 247.018,142.508 239.352,142.175 231.5,142.5C 231.174,151.349 231.507,160.016 232.5,168.5C 231.972,169.721 231.305,170.887 230.5,172C 223.233,173.515 215.899,173.848 208.5,173C 206.249,172.252 204.916,170.752 204.5,168.5C 205.493,160.016 205.826,151.349 205.5,142.5C 196.983,142.174 188.65,142.507 180.5,143.5C 178.983,143.489 177.816,142.823 177,141.5C 176.178,133.655 176.344,125.989 177.5,118.5C 178.078,119.547 178.744,119.38 179.5,118C 187.677,117.829 195.677,117.329 203.5,116.5C 204.167,107.325 204.833,97.9914 205.5,88.5C 213.785,87.3638 222.118,87.1971 230.5,88C 231.756,88.4169 232.423,89.2502 232.5,90.5 Z"/></g>
<g><path style="opacity:1" fill="#0f511e" d="M 103.5,102.5 C 112.839,102.334 122.173,102.5 131.5,103C 132.416,103.374 133.25,103.874 134,104.5C 134.816,113.079 134.649,121.579 133.5,130C 123.58,131.423 113.58,131.923 103.5,131.5C 103.5,140.5 103.5,149.5 103.5,158.5C 102.172,149.098 102.172,139.598 103.5,130C 113.161,129.5 122.828,129.334 132.5,129.5C 132.831,121.14 132.498,112.807 131.5,104.5C 122.038,103.858 112.705,103.191 103.5,102.5 Z"/></g>
<g><path style="opacity:1" fill="#003402" d="M 203.5,116.5 C 195.677,117.329 187.677,117.829 179.5,118C 178.744,119.38 178.078,119.547 177.5,118.5C 177.611,117.883 177.944,117.383 178.5,117C 186.827,116.5 195.16,116.334 203.5,116.5 Z"/></g>
<g><path style="opacity:1" fill="#024713" d="M 232.5,90.5 C 232.5,98.8333 232.5,107.167 232.5,115.5C 241.839,115.334 251.173,115.5 260.5,116C 261.828,124.598 261.828,133.098 260.5,141.5C 260.815,133.58 260.482,125.747 259.5,118C 250.141,117.721 240.808,117.221 231.5,116.5C 231.174,107.651 231.507,98.9839 232.5,90.5 Z"/></g>
<g><path style="opacity:1" fill="#003501" d="M 180.5,143.5 C 188.65,142.507 196.983,142.174 205.5,142.5C 205.826,151.349 205.493,160.016 204.5,168.5C 204.5,160.167 204.5,151.833 204.5,143.5C 196.5,143.5 188.5,143.5 180.5,143.5 Z"/></g>
<g><path style="opacity:1" fill="#003103" d="M 254.5,143.5 C 247.167,143.5 239.833,143.5 232.5,143.5C 232.5,151.833 232.5,160.167 232.5,168.5C 231.507,160.016 231.174,151.349 231.5,142.5C 239.352,142.175 247.018,142.508 254.5,143.5 Z"/></g>
<g><path style="opacity:1" fill="#0d4d19" d="M 49.5,165.5 C 49.1667,189.5 48.8333,189.5 48.5,165.5C 43.2384,165.195 38.0717,165.529 33,166.5C 32.5005,172.491 32.3338,178.491 32.5,184.5C 26.9738,184.821 21.6405,184.488 16.5,183.5C 21.5,183.5 26.5,183.5 31.5,183.5C 31.3338,177.491 31.5005,171.491 32,165.5C 32.5,165 33,164.5 33.5,164C 38.1667,163.333 42.8333,163.333 47.5,164C 48.4158,164.278 49.0825,164.778 49.5,165.5 Z"/></g>
<g><path style="opacity:1" fill="#00602c" d="M 381.5,202.5 C 381.666,208.176 381.499,213.843 381,219.5C 380.5,220 380,220.5 379.5,221C 373.584,221.807 367.75,221.641 362,220.5C 361.501,214.509 361.334,208.509 361.5,202.5C 355.491,202.666 349.491,202.499 343.5,202C 342.191,195.889 342.191,189.722 343.5,183.5C 349.439,182.543 355.439,182.21 361.5,182.5C 362.327,177.015 362.827,171.348 363,165.5C 368.407,164.527 373.907,164.193 379.5,164.5C 379.334,170.842 379.5,177.175 380,183.5C 386.085,184.312 392.252,184.812 398.5,185C 399.833,190.333 399.833,195.667 398.5,201C 392.652,201.173 386.985,201.673 381.5,202.5 Z"/></g>
<g><path style="opacity:1" fill="#025f2b" d="M 155.5,165.5 C 155.5,173.167 155.5,180.833 155.5,188.5C 163.167,188.5 170.833,188.5 178.5,188.5C 179.117,188.611 179.617,188.944 180,189.5C 180.667,196.5 180.667,203.5 180,210.5C 171.919,211.482 163.752,211.816 155.5,211.5C 155.946,219.173 156.112,226.84 156,234.5C 155.626,235.416 155.126,236.25 154.5,237C 146.92,237.813 139.42,237.647 132,236.5C 130.562,228.277 130.062,219.943 130.5,211.5C 122.826,211.666 115.159,211.5 107.5,211C 106.874,210.25 106.374,209.416 106,208.5C 105.333,202.5 105.333,196.5 106,190.5C 106.374,189.584 106.874,188.75 107.5,188C 115.493,187.5 123.493,187.334 131.5,187.5C 131.334,179.826 131.5,172.159 132,164.5C 132.5,164 133,163.5 133.5,163C 140.167,162.333 146.833,162.333 153.5,163C 154.381,163.708 155.047,164.542 155.5,165.5 Z"/></g>
<g><path style="opacity:1" fill="#01622e" d="M 49.5,165.5 C 50.4896,171.31 50.8229,177.31 50.5,183.5C 56.358,183.178 62.0247,183.511 67.5,184.5C 68.5668,189.782 68.7335,195.115 68,200.5C 61.9149,201.312 55.7482,201.812 49.5,202C 48.5251,207.741 48.1918,213.575 48.5,219.5C 43.1667,219.5 37.8333,219.5 32.5,219.5C 32.5,213.5 32.5,207.5 32.5,201.5C 26.5,201.5 20.5,201.5 14.5,201.5C 14.5803,195.525 14.5803,189.858 14.5,184.5C 14.8417,183.662 15.5084,183.328 16.5,183.5C 21.6405,184.488 26.9738,184.821 32.5,184.5C 32.3338,178.491 32.5005,172.491 33,166.5C 38.0717,165.529 43.2384,165.195 48.5,165.5C 48.8333,189.5 49.1667,189.5 49.5,165.5 Z"/></g>
<g><path style="opacity:1" fill="#03622f" d="M 306.5,190.5 C 303.482,190.335 300.482,190.502 297.5,191C 302.5,191.333 307.5,191.667 312.5,192C 313.469,196.737 313.803,201.57 313.5,206.5C 308.156,206.334 302.823,206.501 297.5,207C 297,207.5 296.5,208 296,208.5C 295.501,213.489 295.334,218.489 295.5,223.5C 290.833,223.5 286.167,223.5 281.5,223.5C 281.807,217.907 281.473,212.407 280.5,207C 274.584,206.81 268.751,206.31 263,205.5C 262.201,200.913 262.368,196.413 263.5,192C 269.167,191.667 274.833,191.333 280.5,191C 277.183,190.502 273.85,190.335 270.5,190.5C 273.287,189.523 276.287,189.19 279.5,189.5C 279.334,183.824 279.501,178.157 280,172.5C 280.5,172 281,171.5 281.5,171C 286.167,170.333 290.833,170.333 295.5,171C 296,171.5 296.5,172 297,172.5C 297.499,178.157 297.666,183.824 297.5,189.5C 300.713,189.19 303.713,189.523 306.5,190.5 Z"/></g>
<g><path style="opacity:1" fill="#a2ccba" d="M 155.5,165.5 C 156.492,172.648 156.825,179.981 156.5,187.5C 164.019,187.175 171.352,187.508 178.5,188.5C 170.833,188.5 163.167,188.5 155.5,188.5C 155.5,180.833 155.5,173.167 155.5,165.5 Z"/></g>
<g><path style="opacity:1" fill="#003b0b" d="M 381.5,202.5 C 386.985,201.673 392.652,201.173 398.5,201C 399.833,195.667 399.833,190.333 398.5,185C 392.252,184.812 386.085,184.312 380,183.5C 379.5,177.175 379.334,170.842 379.5,164.5C 373.907,164.193 368.407,164.527 363,165.5C 362.827,171.348 362.327,177.015 361.5,182.5C 361.334,176.491 361.501,170.491 362,164.5C 368.333,163.167 374.667,163.167 381,164.5C 381.5,170.825 381.666,177.158 381.5,183.5C 387.509,183.334 393.509,183.501 399.5,184C 400.833,190 400.833,196 399.5,202C 393.509,202.499 387.509,202.666 381.5,202.5 Z"/></g>
<g><path style="opacity:1" fill="#0e2d70" d="M 1081.5,217.5 C 1081.06,217.435 1080.73,217.601 1080.5,218C 1082.05,219.214 1083.22,220.714 1084,222.5C 1084.16,251.209 1084.66,278.543 1085.5,304.5C 1086.13,306.626 1087.46,308.293 1089.5,309.5C 1093.59,319.487 1090.26,323.987 1079.5,323C 1073.73,320.293 1070.23,315.793 1069,309.5C 1068.33,280.167 1068.33,250.833 1069,221.5C 1069.83,219.333 1071.33,217.833 1073.5,217C 1076.37,216.199 1079.03,216.366 1081.5,217.5 Z"/></g>
<g><path style="opacity:1" fill="#0f2b6e" d="M 520.5,216.5 C 531.16,215.328 535.327,219.994 533,230.5C 530.103,235.155 525.937,236.655 520.5,235C 515.268,232.367 513.435,228.201 515,222.5C 516.36,219.977 518.193,217.977 520.5,216.5 Z"/></g>
<g><path style="opacity:1" fill="#102e72" d="M 616.5,218.5 C 615.287,219.497 615.454,220.497 617,221.5C 617.168,252.336 617.668,283.003 618.5,313.5C 616.422,316.051 613.756,317.884 610.5,319C 592.733,326.136 575.733,324.803 559.5,315C 546.173,298.968 544.006,281.468 553,262.5C 563.682,247.946 577.849,243.113 595.5,248C 597.888,248.303 600.055,249.137 602,250.5C 602.333,240.5 602.667,230.5 603,220.5C 603.5,218.667 604.667,217.5 606.5,217C 609.167,216.333 611.833,216.333 614.5,217C 615.416,217.278 616.082,217.778 616.5,218.5 Z"/></g>
<g><path style="opacity:1" fill="#0f2a6d" d="M 1038.5,216.5 C 1047.99,215.819 1052.15,220.153 1051,229.5C 1048.08,235.025 1043.58,236.858 1037.5,235C 1032.78,231.746 1031.28,227.246 1033,221.5C 1034.73,219.598 1036.56,217.931 1038.5,216.5 Z"/></g>
<g><path style="opacity:1" fill="#074c1a" d="M 14.5,184.5 C 14.5803,189.858 14.5803,195.525 14.5,201.5C 20.5,201.5 26.5,201.5 32.5,201.5C 32.5,207.5 32.5,213.5 32.5,219.5C 37.8333,219.5 43.1667,219.5 48.5,219.5C 48.1918,213.575 48.5251,207.741 49.5,202C 55.7482,201.812 61.9149,201.312 68,200.5C 68.7335,195.115 68.5668,189.782 67.5,184.5C 68.1174,184.611 68.6174,184.944 69,185.5C 69.6667,190.833 69.6667,196.167 69,201.5C 62.9242,202.476 56.7576,202.81 50.5,202.5C 50.6661,208.176 50.4994,213.843 50,219.5C 49.5,220 49,220.5 48.5,221C 42.9162,221.806 37.4162,221.639 32,220.5C 31.5005,214.509 31.3338,208.509 31.5,202.5C 25.4632,202.829 19.4632,202.496 13.5,201.5C 12.3822,196.22 12.2155,190.887 13,185.5C 13.3826,184.944 13.8826,184.611 14.5,184.5 Z"/></g>
<g><path style="opacity:1" fill="#0f2a6f" d="M 910.5,217.5 C 914.24,217.241 917.906,217.574 921.5,218.5C 923.938,220.656 924.105,222.989 922,225.5C 918.088,230.083 913.588,233.917 908.5,237C 905.438,237.741 902.438,237.575 899.5,236.5C 898.386,235.277 898.219,233.944 899,232.5C 901.896,226.671 905.729,221.671 910.5,217.5 Z"/></g>
<g><path style="opacity:1" fill="#0f2167" d="M 864.5,222.5 C 845.92,222.534 827.587,222.534 809.5,222.5C 810.473,222.013 811.473,221.513 812.5,221C 829.167,220.333 845.833,220.333 862.5,221C 863.416,221.278 864.082,221.778 864.5,222.5 Z"/></g>
<g><path style="opacity:1" fill="#102d71" d="M 279.5,293.5 C 282.385,293.194 285.052,293.527 287.5,294.5C 281.244,298.461 274.577,301.627 267.5,304C 262.643,307.922 257.643,311.588 252.5,315C 221.382,344.875 216.215,378.708 237,416.5C 245.586,428.05 257.086,434.884 271.5,437C 281.13,438.12 290.796,438.786 300.5,439C 314.569,440.124 326.903,445.124 337.5,454C 328.486,452.113 319.486,449.78 310.5,447C 302.833,446.333 295.167,446.333 287.5,447C 283.623,447.257 279.957,448.257 276.5,450C 279.827,452.284 283.16,454.618 286.5,457C 296.055,460.443 305.389,464.443 314.5,469C 320.054,473.253 324.387,478.586 327.5,485C 327.167,485.167 326.833,485.333 326.5,485.5C 322.145,480.313 316.812,476.48 310.5,474C 306.462,473.439 302.462,473.105 298.5,473C 302.932,480.791 307.432,488.625 312,496.5C 313.25,499.077 313.584,501.743 313,504.5C 308.611,499.111 304.611,493.444 301,487.5C 288.325,471.243 271.825,461.243 251.5,457.5C 252.417,462.751 254.583,467.418 258,471.5C 263.664,477.251 269.831,482.418 276.5,487C 280.633,492.134 285.133,496.968 290,501.5C 294.557,507.901 296.724,514.901 296.5,522.5C 291.776,514.934 286.443,507.767 280.5,501C 275.277,498.443 270.61,495.109 266.5,491C 265.241,490.018 263.908,489.685 262.5,490C 262.752,503.262 265.252,516.096 270,528.5C 270.667,529.833 270.667,531.167 270,532.5C 268.248,529.328 266.248,526.328 264,523.5C 260.266,511.298 255.932,499.298 251,487.5C 244.755,479.343 238.755,471.01 233,462.5C 229.495,459.831 225.662,457.831 221.5,456.5C 221.334,464.174 221.5,471.841 222,479.5C 226.732,488.629 231.732,497.629 237,506.5C 241.27,517.098 242.603,528.098 241,539.5C 240.784,541.384 240.117,543.051 239,544.5C 237.165,528.144 231.331,513.478 221.5,500.5C 218.909,498.62 216.409,496.62 214,494.5C 217.276,514.14 212.943,531.807 201,547.5C 202.388,538.42 203.555,529.253 204.5,520C 202.364,509.11 201.031,498.11 200.5,487C 201.185,478.178 201.518,469.345 201.5,460.5C 198.575,460.46 195.909,461.293 193.5,463C 175.867,479.391 171.7,498.891 181,521.5C 181.746,542.064 180.413,542.397 177,522.5C 175.924,519.352 174.591,516.352 173,513.5C 165.76,520.317 160.26,528.317 156.5,537.5C 156.167,537.333 155.833,537.167 155.5,537C 159.405,527.347 162.905,517.513 166,507.5C 166.829,500.766 166.496,494.099 165,487.5C 157.806,492.759 150.473,497.759 143,502.5C 136.098,509.412 130.764,517.412 127,526.5C 126.333,523.167 126.333,519.833 127,516.5C 128.726,512.047 130.726,507.714 133,503.5C 142.004,492.665 151.504,482.331 161.5,472.5C 164.578,466.592 168.245,461.092 172.5,456C 169.793,455.672 167.126,456.005 164.5,457C 157.157,459.249 150.157,462.249 143.5,466C 137.385,470.814 131.551,475.981 126,481.5C 119.905,489.351 113.572,497.018 107,504.5C 108.102,499.273 110.102,494.273 113,489.5C 116.909,485.353 120.076,480.686 122.5,475.5C 112.63,476.298 103.63,479.798 95.5,486C 93.481,486.45 91.6477,487.283 90,488.5C 93.9878,483.501 98.4878,478.667 103.5,474C 113.151,469.509 122.485,464.509 131.5,459C 135.718,456.718 139.384,453.718 142.5,450C 120.81,443.004 100.81,446.337 82.5,460C 81.5,460.667 80.5,460.667 79.5,460C 82.464,456.034 85.7974,452.367 89.5,449C 105.956,440.04 123.623,436.04 142.5,437C 168.709,432.793 184.543,417.626 190,391.5C 198.211,350.764 184.045,320.931 147.5,302C 139.536,299.642 131.536,297.475 123.5,295.5C 124.09,294.201 125.09,293.368 126.5,293C 130.644,292.313 134.811,291.813 139,291.5C 145.849,292.437 152.682,293.437 159.5,294.5C 158.055,281.444 152.721,270.277 143.5,261C 146.207,260.672 148.874,261.005 151.5,262C 154.667,265.167 157.833,268.333 161,271.5C 162.441,263.176 165.108,255.176 169,247.5C 165.443,272.511 173.11,293.178 192,309.5C 198.439,300.003 202.605,289.67 204.5,278.5C 206.09,274.327 207.09,269.327 207.5,263.5C 206.89,258.178 206.39,252.844 206,247.5C 205.434,245.277 204.6,243.277 203.5,241.5C 201.307,231.608 197.307,222.441 191.5,214C 192,213.5 192.5,213 193,212.5C 195.087,213.794 197.254,214.961 199.5,216C 204.016,220.853 208.182,226.02 212,231.5C 214.422,227.656 217.089,223.99 220,220.5C 223.477,211.729 227.144,203.062 231,194.5C 232.594,201.726 232.928,209.06 232,216.5C 229.787,226.802 227.787,237.135 226,247.5C 225.149,253.253 225.483,258.92 227,264.5C 236.148,257.682 244.981,250.515 253.5,243C 266.213,234.276 268.546,235.776 260.5,247.5C 254.677,254.46 248.844,261.46 243,268.5C 238.726,275.772 234.059,282.772 229,289.5C 223.504,298.942 222.171,308.942 225,319.5C 225.718,320.451 226.551,320.617 227.5,320C 236.768,312.643 245.934,305.143 255,297.5C 259.613,290.675 263.28,283.342 266,275.5C 267.513,272.476 269.513,269.809 272,267.5C 269.723,276.298 268.223,285.298 267.5,294.5C 271.5,294.167 275.5,293.833 279.5,293.5 Z"/></g>
<g><path style="opacity:1" fill="#074f1a" d="M 270.5,190.5 C 273.85,190.335 277.183,190.502 280.5,191C 274.833,191.333 269.167,191.667 263.5,192C 262.368,196.413 262.201,200.913 263,205.5C 268.751,206.31 274.584,206.81 280.5,207C 281.473,212.407 281.807,217.907 281.5,223.5C 286.167,223.5 290.833,223.5 295.5,223.5C 295.334,218.489 295.501,213.489 296,208.5C 296.5,208 297,207.5 297.5,207C 302.823,206.501 308.156,206.334 313.5,206.5C 313.803,201.57 313.469,196.737 312.5,192C 307.5,191.667 302.5,191.333 297.5,191C 300.482,190.502 303.482,190.335 306.5,190.5C 309.249,190.274 311.916,190.607 314.5,191.5C 315.662,196.467 315.829,201.467 315,206.5C 314.5,207 314,207.5 313.5,208C 308.177,208.499 302.844,208.666 297.5,208.5C 297.5,213.833 297.5,219.167 297.5,224.5C 292.204,225.509 286.871,225.676 281.5,225C 281,224.5 280.5,224 280,223.5C 279.501,218.177 279.334,212.844 279.5,207.5C 273.824,207.666 268.157,207.499 262.5,207C 261.527,201.593 261.193,196.093 261.5,190.5C 264.5,190.5 267.5,190.5 270.5,190.5 Z"/></g>
<g><path style="opacity:1" fill="#103073" d="M 809.5,222.5 C 827.587,222.534 845.92,222.534 864.5,222.5C 867.436,223.515 868.769,225.682 868.5,229C 868.569,231.735 867.569,233.902 865.5,235.5C 851.747,235.454 837.747,235.454 823.5,235.5C 823.5,245.5 823.5,255.5 823.5,265.5C 834.346,265.828 845.013,265.494 855.5,264.5C 861.903,266.309 863.736,270.309 861,276.5C 859.871,278.141 858.371,279.141 856.5,279.5C 845.431,278.171 834.265,278.171 823,279.5C 822.814,292.212 822.314,304.879 821.5,317.5C 821.624,318.107 821.957,318.44 822.5,318.5C 818.887,322.549 814.554,323.382 809.5,321C 808.177,320.184 807.511,319.017 807.5,317.5C 807.189,286.469 807.523,255.469 808.5,224.5C 808.328,223.508 808.662,222.842 809.5,222.5 Z"/></g>
<g><path style="opacity:1" fill="#03602c" d="M 324.5,227.5 C 329.844,227.334 335.177,227.501 340.5,228C 341.333,228.833 342.167,229.667 343,230.5C 343.5,236.825 343.666,243.158 343.5,249.5C 350.175,249.334 356.842,249.5 363.5,250C 364,250.5 364.5,251 365,251.5C 365.667,257.5 365.667,263.5 365,269.5C 364.5,270 364,270.5 363.5,271C 356.842,271.5 350.175,271.666 343.5,271.5C 343.666,277.842 343.5,284.175 343,290.5C 342.626,291.416 342.126,292.25 341.5,293C 335.833,293.667 330.167,293.667 324.5,293C 323.667,292.167 322.833,291.333 322,290.5C 321.5,284.175 321.334,277.842 321.5,271.5C 314.825,271.666 308.158,271.5 301.5,271C 300.874,270.25 300.374,269.416 300,268.5C 299.333,263.167 299.333,257.833 300,252.5C 300.374,251.584 300.874,250.75 301.5,250C 308.158,249.5 314.825,249.334 321.5,249.5C 321.334,243.158 321.5,236.825 322,230.5C 322.698,229.309 323.531,228.309 324.5,227.5 Z"/></g>
<g><path style="opacity:1" fill="#00612d" d="M 113.5,268.5 C 113.047,269.458 112.381,270.292 111.5,271C 104.508,271.5 97.5079,271.666 90.5,271.5C 90.6663,278.175 90.4996,284.842 90,291.5C 89.2917,292.381 88.4584,293.047 87.5,293.5C 82.3491,292.673 77.0158,292.173 71.5,292C 71,291.5 70.5,291 70,290.5C 69.814,283.586 69.314,276.753 68.5,270C 61.5079,269.5 54.5079,269.334 47.5,269.5C 47.5,263.5 47.5,257.5 47.5,251.5C 54.5079,251.666 61.5079,251.5 68.5,251C 69.314,244.247 69.814,237.414 70,230.5C 76.0758,229.524 82.2424,229.19 88.5,229.5C 89.0753,236.714 89.7419,243.881 90.5,251C 97.4921,251.5 104.492,251.666 111.5,251.5C 111.968,257.329 112.635,262.996 113.5,268.5 Z"/></g>
<g><path style="opacity:1" fill="#0f2d70" d="M 422.5,220.5 C 425.518,220.335 428.518,220.502 431.5,221C 433.049,222.214 434.215,223.714 435,225.5C 443.241,251.483 452.241,277.15 462,302.5C 471.197,276.575 480.197,250.575 489,224.5C 492.771,220.212 497.271,219.379 502.5,222C 505.265,224.995 506.098,228.495 505,232.5C 495.06,260.321 484.726,287.988 474,315.5C 468.888,321.979 462.388,323.812 454.5,321C 452.291,319.127 450.458,316.96 449,314.5C 438.722,287.609 428.722,260.609 419,233.5C 418.333,230.5 418.333,227.5 419,224.5C 419.69,222.65 420.856,221.316 422.5,220.5 Z"/></g>
<g><path style="opacity:1" fill="#03602d" d="M 785.5,282.5 C 784.711,282.783 784.044,283.283 783.5,284C 775.656,284.171 767.989,284.671 760.5,285.5C 760.666,293.84 760.5,302.173 760,310.5C 759.5,311.667 758.667,312.5 757.5,313C 752.5,313.667 747.5,313.667 742.5,313C 741.667,312.167 740.833,311.333 740,310.5C 739.5,302.173 739.334,293.84 739.5,285.5C 731.493,285.666 723.493,285.5 715.5,285C 715,284.5 714.5,284 714,283.5C 713.333,278.167 713.333,272.833 714,267.5C 714.833,266.667 715.667,265.833 716.5,265C 724.159,264.5 731.826,264.334 739.5,264.5C 739.334,256.826 739.5,249.159 740,241.5C 742.749,238.959 746.082,237.959 750,238.5C 753.569,238.286 756.902,238.953 760,240.5C 760.5,248.493 760.666,256.493 760.5,264.5C 768.174,264.334 775.841,264.5 783.5,265C 784.333,265.833 785.167,266.667 786,267.5C 786.816,272.684 786.65,277.684 785.5,282.5 Z"/></g>
<g><path style="opacity:1" fill="#0f2d71" d="M 679.5,279.5 C 682.187,266.822 676.853,260.156 663.5,259.5C 660.821,259.936 658.155,260.436 655.5,261C 652.182,261.616 649.848,262.782 648.5,264.5C 641.105,268.293 637.272,265.96 637,257.5C 637.785,255.714 638.951,254.214 640.5,253C 653.268,246.053 666.601,244.719 680.5,249C 688.766,251.599 693.932,257.099 696,265.5C 696.21,281.851 696.71,298.185 697.5,314.5C 695.909,321.963 691.575,324.129 684.5,321C 683,319.5 681.5,318 680,316.5C 668.065,324.123 655.565,325.29 642.5,320C 633.195,313.99 629.695,305.49 632,294.5C 635.425,284.746 642.258,278.913 652.5,277C 661.663,276.131 670.663,276.964 679.5,279.5 Z"/></g>
<g><path style="opacity:1" fill="#112d70" d="M 984.5,246.5 C 994.222,245.732 1003.56,247.232 1012.5,251C 1018.12,253.735 1019.62,257.901 1017,263.5C 1015.82,265.357 1014.15,266.357 1012,266.5C 1007.45,265.141 1002.95,263.641 998.5,262C 985.046,259.309 976.212,264.476 972,277.5C 969.057,299.555 978.557,309.389 1000.5,307C 1004.29,305.354 1008.12,303.854 1012,302.5C 1016.52,303.165 1019.02,305.832 1019.5,310.5C 1017.21,316.338 1012.87,319.838 1006.5,321C 989.882,325.817 975.049,322.65 962,311.5C 954.244,300.727 951.577,288.727 954,275.5C 957.941,259.14 968.107,249.473 984.5,246.5 Z"/></g>
<g><path style="opacity:1" fill="#0f2c70" d="M 899.5,246.5 C 911.449,245.154 922.449,247.654 932.5,254C 935.567,257.297 937.733,261.131 939,265.5C 939.47,283.183 939.803,300.85 940,318.5C 933.724,324.181 928.057,323.514 923,316.5C 911.845,323.584 900.012,325.084 887.5,321C 880.903,318.737 876.736,314.237 875,307.5C 872.246,290.831 879.08,280.664 895.5,277C 904.675,276.045 913.675,276.878 922.5,279.5C 922.787,264.448 915.454,258.614 900.5,262C 895.858,263.603 891.192,265.103 886.5,266.5C 878.651,263.6 877.651,259.1 883.5,253C 888.572,249.956 893.906,247.79 899.5,246.5 Z"/></g>
<g><path style="opacity:1" fill="#103073" d="M 520.5,248.5 C 521.209,247.596 522.209,247.263 523.5,247.5C 524.842,248.793 526.509,249.626 528.5,250C 529.701,250.903 530.535,252.069 531,253.5C 531.333,269.833 531.667,286.167 532,302.5C 532.499,297.511 532.666,292.511 532.5,287.5C 533.658,296.991 533.825,306.658 533,316.5C 530.571,321.202 526.738,323.035 521.5,322C 520.058,321.623 519.058,320.79 518.5,319.5C 517.354,296.876 517.188,274.21 518,251.5C 519.419,250.54 520.919,249.707 522.5,249C 521.906,248.536 521.239,248.369 520.5,248.5 Z"/></g>
<g><path style="opacity:1" fill="#0f3073" d="M 1050.5,253.5 C 1049.67,274.663 1049.17,295.996 1049,317.5C 1047.96,318.244 1047.46,319.244 1047.5,320.5C 1047.5,321.167 1047.17,321.5 1046.5,321.5C 1044.03,320.683 1041.36,320.183 1038.5,320C 1037.67,319.167 1036.83,318.333 1036,317.5C 1035.53,294.923 1035.36,272.589 1035.5,250.5C 1038.2,247.697 1041.54,246.863 1045.5,248C 1048.08,249.076 1049.75,250.909 1050.5,253.5 Z"/></g>
<g><path style="opacity:1" fill="#061f68" d="M 616.5,218.5 C 617.504,219.683 618.338,221.016 619,222.5C 619.818,252.875 619.651,283.209 618.5,313.5C 617.668,283.003 617.168,252.336 617,221.5C 615.454,220.497 615.287,219.497 616.5,218.5 Z"/></g>
<g><path style="opacity:1" fill="#014915" d="M 113.5,268.5 C 112.635,262.996 111.968,257.329 111.5,251.5C 104.492,251.666 97.4921,251.5 90.5,251C 89.7419,243.881 89.0753,236.714 88.5,229.5C 82.2424,229.19 76.0758,229.524 70,230.5C 69.814,237.414 69.314,244.247 68.5,251C 61.5079,251.5 54.5079,251.666 47.5,251.5C 47.5,257.5 47.5,263.5 47.5,269.5C 54.5079,269.334 61.5079,269.5 68.5,270C 69.314,276.753 69.814,283.586 70,290.5C 70.5,291 71,291.5 71.5,292C 77.0158,292.173 82.3491,292.673 87.5,293.5C 81.8236,293.666 76.1569,293.499 70.5,293C 70,292.5 69.5,292 69,291.5C 68.5004,284.842 68.3337,278.175 68.5,271.5C 61.1591,271.666 53.8258,271.5 46.5,271C 45.3567,264.582 45.19,258.082 46,251.5C 46.5,251 47,250.5 47.5,250C 54.4921,249.5 61.4921,249.334 68.5,249.5C 68.3337,242.825 68.5004,236.158 69,229.5C 69.5,229 70,228.5 70.5,228C 76.1667,227.333 81.8333,227.333 87.5,228C 88.3081,228.308 88.9747,228.808 89.5,229.5C 90.4617,236.108 90.7951,242.774 90.5,249.5C 97.5079,249.334 104.508,249.5 111.5,250C 112.126,250.75 112.626,251.584 113,252.5C 113.499,257.823 113.666,263.156 113.5,268.5 Z"/></g>
<g><path style="opacity:1" fill="#080f56" d="M 865.5,235.5 C 863.411,236.891 861.078,237.558 858.5,237.5C 847.188,236.59 835.854,236.256 824.5,236.5C 824.5,245.833 824.5,255.167 824.5,264.5C 834.833,264.5 845.167,264.5 855.5,264.5C 845.013,265.494 834.346,265.828 823.5,265.5C 823.5,255.5 823.5,245.5 823.5,235.5C 837.747,235.454 851.747,235.454 865.5,235.5 Z"/></g>
<g><path style="opacity:1" fill="#07145d" d="M 203.5,241.5 C 204.6,243.277 205.434,245.277 206,247.5C 206.39,252.844 206.89,258.178 207.5,263.5C 207.09,269.327 206.09,274.327 204.5,278.5C 206.1,266.1 205.766,253.766 203.5,241.5 Z"/></g>
<g><path style="opacity:1" fill="#fcfcfd" d="M 602.5,264.5 C 602.5,278.167 602.5,291.833 602.5,305.5C 598.812,306.172 595.145,307.005 591.5,308C 583.055,309.349 575.722,307.183 569.5,301.5C 564.004,290.098 564.171,278.765 570,267.5C 573.562,262.933 578.229,260.6 584,260.5C 590.44,260.774 596.607,262.107 602.5,264.5 Z"/></g>
<g><path style="opacity:1" fill="#09155d" d="M 679.5,279.5 C 680.836,271.337 677.836,265.503 670.5,262C 662.916,260.898 655.582,261.731 648.5,264.5C 649.848,262.782 652.182,261.616 655.5,261C 658.155,260.436 660.821,259.936 663.5,259.5C 676.853,260.156 682.187,266.822 679.5,279.5 Z"/></g>
<g><path style="opacity:1" fill="#010c53" d="M 523.5,247.5 C 527.493,247.245 530.326,248.911 532,252.5C 532.5,264.162 532.667,275.829 532.5,287.5C 532.666,292.511 532.499,297.511 532,302.5C 531.667,286.167 531.333,269.833 531,253.5C 530.535,252.069 529.701,250.903 528.5,250C 526.509,249.626 524.842,248.793 523.5,247.5 Z"/></g>
<g><path style="opacity:1" fill="#242a6c" d="M 808.5,224.5 C 807.523,255.469 807.189,286.469 807.5,317.5C 806.778,317.082 806.278,316.416 806,315.5C 805.333,286.5 805.333,257.5 806,228.5C 806.2,226.68 807.034,225.347 808.5,224.5 Z"/></g>
<g><path style="opacity:1" fill="#000748" d="M 1081.5,217.5 C 1083.17,218.343 1084.34,219.676 1085,221.5C 1085.5,249.165 1085.67,276.831 1085.5,304.5C 1084.66,278.543 1084.16,251.209 1084,222.5C 1083.22,220.714 1082.05,219.214 1080.5,218C 1080.73,217.601 1081.06,217.435 1081.5,217.5 Z"/></g>
<g><path style="opacity:1" fill="#003703" d="M 785.5,282.5 C 785.586,283.496 785.252,284.329 784.5,285C 776.507,285.5 768.507,285.666 760.5,285.5C 767.989,284.671 775.656,284.171 783.5,284C 784.044,283.283 784.711,282.783 785.5,282.5 Z"/></g>
<g><path style="opacity:1" fill="#f9fafc" d="M 658.5,288.5 C 665.305,288.225 671.972,289.058 678.5,291C 679.632,295.413 679.799,299.913 679,304.5C 670.585,310.665 661.751,311.665 652.5,307.5C 647.057,298.751 649.057,292.418 658.5,288.5 Z"/></g>
<g><path style="opacity:1" fill="#f8f9fb" d="M 900.5,288.5 C 907.745,287.928 914.745,288.928 921.5,291.5C 922.833,295.833 922.833,300.167 921.5,304.5C 913.381,310.502 904.715,311.668 895.5,308C 892.123,304.867 890.956,301.034 892,296.5C 894.074,292.923 896.907,290.256 900.5,288.5 Z"/></g>
<g><path style="opacity:1" fill="#000852" d="M 1050.5,253.5 C 1050.67,275.169 1050.5,296.836 1050,318.5C 1049.29,319.381 1048.46,320.047 1047.5,320.5C 1047.46,319.244 1047.96,318.244 1049,317.5C 1049.17,295.996 1049.67,274.663 1050.5,253.5 Z"/></g>
<g><path style="opacity:1" fill="#8297b6" d="M 279.5,293.5 C 282.355,292.197 285.355,292.197 288.5,293.5C 288.376,294.107 288.043,294.44 287.5,294.5C 285.052,293.527 282.385,293.194 279.5,293.5 Z"/></g>
<g><path style="opacity:1" fill="#041860" d="M 856.5,279.5 C 845.833,279.5 835.167,279.5 824.5,279.5C 824.667,291.505 824.5,303.505 824,315.5C 823.487,316.527 822.987,317.527 822.5,318.5C 821.957,318.44 821.624,318.107 821.5,317.5C 822.314,304.879 822.814,292.212 823,279.5C 834.265,278.171 845.431,278.171 856.5,279.5 Z"/></g>
<g><path style="opacity:1" fill="#040c55" d="M 1035.5,250.5 C 1035.36,272.589 1035.53,294.923 1036,317.5C 1036.83,318.333 1037.67,319.167 1038.5,320C 1041.36,320.183 1044.03,320.683 1046.5,321.5C 1041.94,323.353 1038.1,322.353 1035,318.5C 1034.18,295.761 1034.34,273.094 1035.5,250.5 Z"/></g>
<g><path style="opacity:1" fill="#09165d" d="M 602.5,264.5 C 604.309,278.018 604.642,291.684 603.5,305.5C 592.671,310.972 582.004,310.805 571.5,305C 570.177,304.184 569.511,303.017 569.5,301.5C 575.722,307.183 583.055,309.349 591.5,308C 595.145,307.005 598.812,306.172 602.5,305.5C 602.5,291.833 602.5,278.167 602.5,264.5 Z"/></g>
<g><path style="opacity:1" fill="#041a65" d="M 520.5,248.5 C 521.239,248.369 521.906,248.536 522.5,249C 520.919,249.707 519.419,250.54 518,251.5C 517.188,274.21 517.354,296.876 518.5,319.5C 517.21,318.942 516.377,317.942 516,316.5C 515.333,295.167 515.333,273.833 516,252.5C 516.748,250.249 518.248,248.916 520.5,248.5 Z"/></g>
</svg>
